# xmcd
#
# Track frame offsets:
#	150
#	15507
#	28945
#	42300
#	56085
#	69852
#	81090
#	95020
#	106430
#	119342
#	134065
#	149075
#	164927
#	181370
#	197572
#
# Disc length: 2824 seconds
#
# Revision: 3
# Processed by: cddbd v1.5.2PL0 Copyright (c) Steve Scherf et al.
# Submitted via: audiograbber 1.83.01
#
DISCID=e30b060f
DTITLE=Los Temerarios - 15 Super Existos Vol. 1
DYEAR=1900
DGENRE=Latin
TTITLE0=Tu Infame Engaño
TTITLE1=Ven Porque Te Necesito
TTITLE2=Como Ayer
TTITLE3=La Culpa No Tengo Yo
TTITLE4=Nostalgia Campesina
TTITLE5=Nunca Es Tarde
TTITLE6=Dice Adios Tu Mano Al Viento
TTITLE7=Lagrimas de Sangre
TTITLE8=Fue Un Juego
TTITLE9=Dimelo
TTITLE10=Todo Fue Mentira
TTITLE11=Tu Me Vas A Llorar
TTITLE12=Si Tu Cari o No Esta
TTITLE13=Hoy Que Regreso Contigo
TTITLE14=Volvere de mi Viaje
EXTD=
EXTT0=
EXTT1=
EXTT2=
EXTT3=
EXTT4=
EXTT5=
EXTT6=
EXTT7=
EXTT8=
EXTT9=
EXTT10=
EXTT11=
EXTT12=
EXTT13=
EXTT14=
PLAYORDER=
